<svg data-v-6805eed4="" version="1.0" xmlns="http://www.w3.org/2000/svg" xmlns:xlink="http://www.w3.org/1999/xlink" width="100%" height="100%" viewBox="0 0 340.000000 250.000000" preserveAspectRatio="xMidYMid meet" color-interpolation-filters="sRGB" style="margin: auto;"> <rect data-v-6805eed4="" x="0" y="0" width="100%" height="100%" fill="#ffffff" fill-opacity="1" class="background"></rect> <rect data-v-6805eed4="" x="0" y="0" width="100%" height="100%" fill="url(#watermark)" fill-opacity="1" class="watermarklayer"></rect> <g data-v-6805eed4="" fill="#333333" class="newinitialsvg-g newinitialsvg" transform="translate(84.0226292279549,82.62962985038757)"><g class="tp-name" transform="translate(0,0)"><g transform="translate(0, 20.061052540540544)"><g data-gra="path-name" fill="#333333" transform="translate(0,3)"><g transform="scale(0.98)"><path d="M11.94 0L3.86 0L3.86-37.91L11.94-37.91L11.94 0Z" transform="translate(-3.8647104247104247, 37.90826254826255)"></path></g></g></g><g class="tp-graph" transform="translate(11.909016216216216, 0)" mask="url(#70a70348-ad84-4abc-879d-bc4d212dc399)"><rect data-gra="graph-name" fill="#1684ac" x="0" y="2.998299026512541" width="52.92245794594595" height="56.211149837837844"></rect> <g data-gra="path-name" transform="translate(-0.0025924381598372293,3)"><g transform="scale(1.5092)" fill="#1684ac"><path d="M3.86 0L3.86-37.91L19.95-37.91Q25.97-37.91 29.27-36.71L29.27-36.71Q35.35-34.50 37.40-28.59L37.40-28.59Q38.93-24.04 38.93-18.87L38.93-18.87Q38.93-13.75 37.45-9.21L37.45-9.21Q35.98-4.55 32.57-2.33L32.57-2.33Q30.41-0.97 27.82-0.48Q25.23 0 19.95 0L19.95 0L3.86 0ZM19.95-31.15L11.94-31.15L11.94-6.76L19.95-6.76Q25.23-6.76 27.28-9.09L27.28-9.09Q28.53-10.57 29.30-13.24Q30.07-15.91 30.07-18.93L30.07-18.93Q30.07-22.28 29.16-25.06Q28.25-27.85 26.77-29.21L26.77-29.21Q24.61-31.15 19.95-31.15L19.95-31.15Z" transform="translate(-3.8647104247104247, 37.90826254826255)"></path></g></g></g><g transform="translate(68.83147416216217, 20.061052540540544)"><g data-gra="path-name" fill="#333333" transform="translate(0,3)"><g transform="scale(0.98)"><path d="M18.70-37.91L32.28-37.91L32.28-31.15L21.77-31.15Q17.68-31.15 15.80-30.58Q13.92-30.01 12.67-28.36L12.67-28.36Q11.82-27.22 11.51-26.09Q11.20-24.95 10.97-22.22L10.97-22.22L32.28-22.22L32.28-15.46L10.97-15.46Q11.42-10.57 13.87-8.67Q16.31-6.76 22.17-6.76L22.17-6.76L32.28-6.76L32.28 0L21.77 0Q17.50 0 14.27-0.51L14.27-0.51Q9.15-1.36 6.14-5.00L6.14-5.00Q1.82-10.23 1.82-19.15L1.82-19.15Q1.82-29.04 7.90-34.56L7.90-34.56Q10.00-36.43 12.36-37.17Q14.72-37.91 18.70-37.91L18.70-37.91Z" transform="translate(-1.8186872586872587, 37.90826254826255)"></path></g></g></g><g transform="translate(102.68522551351352, 20.061052540540544)"><g data-gra="path-name" fill="#333333" transform="translate(0,3)"><g transform="scale(0.98)"><path d="M9.60 0L0.17 0L15.86-37.91L25.12-37.91L40.81 0L31.37 0L27.68-8.75L13.30-8.75L9.60 0ZM25.92-15.52L20.52-28.76L15.12-15.52L25.92-15.52Z" transform="translate(-0.1705019305019305, 37.90826254826255)"></path></g></g></g><g transform="translate(146.50879308108108, 20.061052540540544)"><g data-gra="path-name" fill="#333333" transform="translate(0,3)"><g transform="scale(0.98)"><path d="M3.41-16.60L3.41-37.91L11.42-37.91L11.42-16.60Q11.59-12.56 11.76-11.25L11.76-11.25Q12.16-8.64 14.27-7.70Q16.37-6.76 21.65-6.76L21.65-6.76L29.38-6.76L29.38 0L20.80 0Q14.72 0 11.99-0.68L11.99-0.68Q5.74-2.50 4.04-8.64L4.04-8.64Q3.41-11.03 3.41-16.60L3.41-16.60Z" transform="translate(-3.41003861003861, 37.90826254826255)"></path></g></g></g></g> <g data-gra="path-slogan" fill-rule="" class="tp-slogan" fill="#333333" transform="translate(45.791587829589844,66.21115612983704)"><!----> <!----> <g transform="scale(1, 1)"><g transform="scale(1.4400000000000006)"><path d="M6.28-8.91L6.28-8.91L9.33-8.91Q10.73-8.95 10.73-8.95L10.73-8.95Q10.64-8.72 10.64-7.83L10.64-7.83L10.64-4.92Q10.64-4.03 10.73-3.56L10.73-3.56Q10.69-3.56 10.59-3.56L10.59-3.56Q10.13-3.61 9.47-3.61L9.47-3.61L8.25-3.61L8.25-2.34L9.14-2.34Q10.64-2.39 10.64-2.39L10.64-2.39L10.64-1.45Q10.17-1.55 9.19-1.55L9.19-1.55L8.25-1.55L8.25-0.28L10.22-0.28Q10.97-0.28 11.30-0.38L11.30-0.38L11.30 0.47Q11.06 0.42 10.22 0.42L10.22 0.42L5.44 0.42Q4.45 0.42 3.89 0.47L3.89 0.47L3.89-0.33Q4.36-0.28 5.39-0.28L5.39-0.28L7.31-0.28L7.31-1.55L6.42-1.55Q5.48-1.55 5.02-1.45L5.02-1.45L5.02-2.39Q5.39-2.34 6.38-2.34L6.38-2.34L7.31-2.34L7.31-3.61L6.14-3.61Q5.53-3.61 5.02-3.56L5.02-3.56Q4.97-3.56 4.92-3.56L4.92-3.56Q4.97-3.56 4.97-4.92L4.97-4.92L4.97-7.83Q4.97-8.25 4.92-8.81L4.92-8.81Q4.92-8.91 4.92-8.95L4.92-8.95Q5.77-8.91 6.28-8.91ZM0.70-7.59L0.70-8.53Q0.98-8.48 1.78-8.48L1.78-8.48L3.28-8.48Q4.45-8.53 4.45-8.53L4.45-8.53L4.45-7.59Q4.17-7.64 3.42-7.64L3.42-7.64L3-7.64L3-5.20L3.28-5.20Q3.84-5.20 4.27-5.25L4.27-5.25L4.27-4.31Q3.84-4.36 3.33-4.36L3.33-4.36L3-4.36L3-1.69Q3.52-1.83 4.27-2.20L4.27-2.20L4.31-1.13Q3.33-0.94 0.80 0.05L0.80 0.05L0.52-1.03Q1.17-1.13 2.11-1.41L2.11-1.41L2.11-4.36L1.69-4.36Q1.22-4.36 0.75-4.31L0.75-4.31L0.75-5.25Q1.17-5.20 1.69-5.20L1.69-5.20L2.11-5.20L2.11-7.64L1.64-7.64Q0.98-7.64 0.70-7.59L0.70-7.59ZM7.31-6.61L7.31-8.11L5.86-8.11L5.86-6.61L7.31-6.61ZM9.75-8.11L8.25-8.11L8.25-6.61L9.75-6.61L9.75-8.11ZM7.31-4.41L7.31-5.91L5.86-5.91L5.86-4.41L7.31-4.41ZM9.75-5.91L8.25-5.91L8.25-4.41L9.75-4.41L9.75-5.91ZM24.61-7.17L24.61-8.11L21.75-8.11L21.75-7.17L24.61-7.17ZM24.61-5.48L24.61-6.42L21.75-6.42L21.75-5.48L24.61-5.48ZM24.61-3.66L24.61-4.73L21.80-4.73L21.80-3.66L24.61-3.66ZM20.30-2.30L21.28-2.67Q21.98-1.69 22.27-1.03L22.27-1.03L21.19-0.61Q20.72-1.78 20.30-2.30L20.30-2.30ZM23.67-1.73L24.56-2.30Q25.59-1.41 26.53-0.28L26.53-0.28L25.45 0.42Q24.61-0.84 23.67-1.73L23.67-1.73ZM16.64-2.20L16.64-2.20L17.86-1.92Q17.86-1.88 17.81-1.73L17.81-1.73Q17.25 0 16.83 0.70L16.83 0.70Q16.36 0.38 15.70 0.38L15.70 0.38Q16.41-0.89 16.64-2.20ZM18.52-2.11L18.52-2.11Q19.73-2.16 19.83-1.97L19.83-1.97Q19.83-1.92 19.78-1.78L19.78-1.78Q19.59-1.36 19.59-0.84L19.59-0.84Q19.27 0.38 21.19 0.14L21.19 0.14Q22.50 0.14 22.64-0.05L22.64-0.05Q22.92-0.19 23.02-1.17L23.02-1.17Q23.58-0.80 24.19-0.66L24.19-0.66Q23.95 0.56 23.39 0.75L23.39 0.75Q22.97 1.03 20.63 0.98L20.63 0.98Q18.42 1.08 18.61 0L18.61 0L18.61-1.17Q18.61-1.69 18.52-2.11ZM17.72-9.56L17.72-9.56Q19.13-9.56 19.13-9.42L19.13-9.42Q19.13-9.38 19.08-9.33L19.08-9.33Q18.84-8.91 18.84-7.73L18.84-7.73Q19.55-7.73 20.30-7.83L20.30-7.83L20.30-6.84Q20.11-6.89 18.84-6.89L18.84-6.89L18.84-5.81L19.64-6.23Q19.78-6.09 20.25-5.53L20.25-5.53Q20.67-4.97 20.81-4.78L20.81-4.78L20.81-7.31Q20.81-8.58 20.72-9.05L20.72-9.05Q21.23-8.91 22.41-8.91L22.41-8.91L24.38-8.91Q25.17-8.91 25.64-9.05L25.64-9.05Q25.55-8.25 25.55-7.41L25.55-7.41L25.55-4.08Q25.55-3.38 25.69-2.72L25.69-2.72Q24.98-2.86 24.09-2.86L24.09-2.86L22.36-2.86Q21.19-2.86 20.67-2.72L20.67-2.72Q20.77-3.52 20.77-4.64L20.77-4.64L19.83-4.08Q19.50-4.88 18.84-5.58L18.84-5.58L18.84-3.89Q18.84-3.19 18.94-2.63L18.94-2.63L17.86-2.63Q17.95-2.91 17.95-3.94L17.95-3.94L17.95-6.09Q17.91-6.05 17.86-5.86L17.86-5.86Q17.34-4.78 16.41-3.23L16.41-3.23Q16.08-3.66 15.47-3.89L15.47-3.89Q16.50-4.59 17.53-6.89L17.53-6.89Q16.97-6.89 16.41-6.84L16.41-6.84Q16.13-6.84 15.98-6.84L15.98-6.84L15.98-7.83Q16.59-7.69 17.86-7.69L17.86-7.69Q17.91-9.23 17.72-9.56ZM33.05-9.66L33.05-9.66Q33.28-9.56 33.80-9.38L33.80-9.38Q34.36-9.14 34.31-9.09L34.31-9.09Q34.31-9.05 34.22-9L34.22-9Q34.03-8.86 33.89-8.58L33.89-8.58Q33.47-7.78 33.09-6.89L33.09-6.89L33.09-0.94Q33.09 0.61 33.19 1.13L33.19 1.13Q32.48 1.08 31.97 1.13L31.97 1.13Q32.11 0.52 32.11-0.98L32.11-0.98L32.11-5.25Q31.55-4.13 31.17-3.61L31.17-3.61Q30.89-4.13 30.47-4.45L30.47-4.45Q32.30-6.52 33.05-9.66ZM36.94-9.33L36.94-9.33Q38.44-9.23 38.39-9.14L38.39-9.14Q38.39-9.09 38.34-9L38.34-9Q38.11-8.58 38.11-8.16L38.11-8.16L38.11-6.23Q38.20-1.08 41.34 0L41.34 0Q40.78 0.42 40.36 1.03L40.36 1.03Q38.11-0.61 37.64-3.42L37.64-3.42Q36.98-0.52 34.59 1.08L34.59 1.08Q34.55 1.03 34.41 0.94L34.41 0.94Q33.94 0.47 33.56 0.33L33.56 0.33Q37.36-0.98 37.08-7.92L37.08-7.92Q37.08-8.25 36.94-9.33ZM39.89-7.13L39.89-7.13Q41.11-6.75 41.06-6.66L41.06-6.66Q41.06-6.56 40.92-6.52L40.92-6.52Q40.78-6.38 40.73-6.19L40.73-6.19Q40.41-4.92 39.98-3.70L39.98-3.70Q39.66-3.89 39-4.03L39-4.03Q39.75-5.58 39.89-7.13ZM34.92-7.17L34.92-7.17Q35.67-7.13 36.14-6.94L36.14-6.94Q36.14-6.89 36.09-6.84L36.09-6.84Q35.86-6.56 35.81-6.19L35.81-6.19Q35.67-4.83 35.34-3.70L35.34-3.70Q34.78-3.94 34.27-3.89L34.27-3.89Q34.83-5.25 34.92-7.17ZM47.77-9.66L47.77-9.66Q48.98-9.19 49.08-9.05L49.08-9.05Q49.08-9 48.98-8.95L48.98-8.95Q48.80-8.81 48.66-8.53L48.66-8.53Q48.52-8.30 48.28-7.73L48.28-7.73Q48.05-7.27 48-7.17L48-7.17L48-0.80Q48 0.66 48.14 1.08L48.14 1.08L46.88 1.08Q47.02 0.66 47.02-0.80L47.02-0.80L47.02-5.39Q46.50-4.45 45.98-3.61L45.98-3.61Q45.70-4.08 45.28-4.45L45.28-4.45Q47.11-6.89 47.77-9.66ZM51.89-9.61L51.89-9.61Q53.20-9.61 53.20-9.56L53.20-9.56Q53.20-9.56 53.16-9.42L53.16-9.42Q52.97-8.86 52.97-8.30L52.97-8.30L52.97-5.48L54.19-5.48Q55.31-5.53 55.88-5.58L55.88-5.58L55.88-4.55Q55.55-4.59 54.19-4.64L54.19-4.64L52.97-4.64L52.97-2.91L54.52-2.91Q56.02-2.91 56.34-2.95L56.34-2.95L56.34-1.92Q56.11-2.02 54.52-2.02L54.52-2.02L52.97-2.02L52.97-0.52Q52.97 0.70 53.06 1.03L53.06 1.03L51.84 1.03Q51.94 0.66 51.94-0.56L51.94-0.56L51.94-2.02L50.39-2.02Q49.17-2.02 48.66-1.88L48.66-1.88L48.66-3Q49.17-2.91 50.44-2.91L50.44-2.91L51.94-2.91L51.94-4.64L50.72-4.64Q49.55-4.59 49.08-4.55L49.08-4.55L49.08-5.58Q49.41-5.53 50.67-5.48L50.67-5.48L51.94-5.48L51.94-7.78Q51.94-9.42 51.89-9.61ZM54.66-8.72L54.66-8.72Q55.92-8.16 55.83-8.11L55.83-8.11Q55.83-8.06 55.73-7.97L55.73-7.97Q55.45-7.83 55.31-7.59L55.31-7.59Q55.27-7.45 54.98-6.98L54.98-6.98Q54.66-6.38 54.56-6.19L54.56-6.19Q54-6.52 53.58-6.56L53.58-6.56Q54.28-7.45 54.66-8.72ZM49.27-8.39L50.25-8.63Q50.53-8.16 51.14-6.66L51.14-6.66L50.11-6.33Q49.78-7.50 49.27-8.39L49.27-8.39Z" transform="translate(-0.515625, 9.65625)"></path></g></g></g></g><mask id="70a70348-ad84-4abc-879d-bc4d212dc399"><rect data-gra="graph-name" x="0" y="2.998299026512541" width="52.92245794594595" height="56.211149837837844" fill="white"></rect> <g data-gra="path-name" transform="translate(-0.0025924381598372293,3)" fill="black"><g transform="scale(1.5092)"><path d="M3.86 0L3.86-37.91L19.95-37.91Q25.97-37.91 29.27-36.71L29.27-36.71Q35.35-34.50 37.40-28.59L37.40-28.59Q38.93-24.04 38.93-18.87L38.93-18.87Q38.93-13.75 37.45-9.21L37.45-9.21Q35.98-4.55 32.57-2.33L32.57-2.33Q30.41-0.97 27.82-0.48Q25.23 0 19.95 0L19.95 0L3.86 0ZM19.95-31.15L11.94-31.15L11.94-6.76L19.95-6.76Q25.23-6.76 27.28-9.09L27.28-9.09Q28.53-10.57 29.30-13.24Q30.07-15.91 30.07-18.93L30.07-18.93Q30.07-22.28 29.16-25.06Q28.25-27.85 26.77-29.21L26.77-29.21Q24.61-31.15 19.95-31.15L19.95-31.15Z" transform="translate(-3.8647104247104247, 37.90826254826255)"></path></g></g></mask><defs v-gra="od"></defs></svg>